# xmcd
#
# Track frame offsets:
# 150
# 23100
# 56681
# 91788
# 107697
# 125548
# 148046
# 167773
# 188151
# 212169
# 228721
# 251127
#
# Disc length: 3703 seconds
#
#
# Revision: 0
# Processed by: cddbd v1.5.1PL0 Copyright (c) Steve Scherf et al.
# Submitted via: FreeRIP 2.53 
#
DISCID=aa0e750c
DTITLE=Lonnie Shields - Lonnie Shields
DYEAR=2004
DGENRE=Blues
TTITLE0=Freedom
TTITLE1=Best Friend Stole My Women
TTITLE2=Cheatin' Women Is Gone
TTITLE3=L.S. Blues
TTITLE4=Hard Times
TTITLE5=Eight Days A Week
TTITLE6=Cry, Sky
TTITLE7=I Got The Blues
TTITLE8=I Can't Let You Hurt me
TTITLE9=Lookin' Up At The Blues
TTITLE10=Arkansas Is My Home
TTITLE11=Doin' Time
EXTD=BluesfestRadio.com
EXTT0=
EXTT1=
EXTT2=
EXTT3=
EXTT4=
EXTT5=
EXTT6=
EXTT7=
EXTT8=
EXTT9=
EXTT10=
EXTT11=
PLAYORDER=
